solid Exported from Blender-3.4.1
facet normal 0.488061 -0.086355 0.868527
outer loop
vertex 122.934143 107.989716 56.792774
vertex -49.890182 70.417770 150.174255
vertex -25.321884 -125.260712 116.912613
endloop
endfacet
facet normal 0.488061 -0.086355 0.868527
outer loop
vertex 122.934143 107.989716 56.792774
vertex -25.321884 -125.260712 116.912613
vertex 147.502441 -87.688766 23.531124
endloop
endfacet
facet normal 0.122841 -0.978392 -0.166308
outer loop
vertex 49.890182 -70.417770 -150.174255
vertex 147.502441 -87.688766 23.531124
vertex -25.321884 -125.260712 116.912613
endloop
endfacet
facet normal 0.122841 -0.978392 -0.166308
outer loop
vertex 49.890182 -70.417770 -150.174255
vertex -25.321884 -125.260712 116.912613
vertex -122.934143 -107.989716 -56.792774
endloop
endfacet
facet normal -0.864122 -0.187860 0.466907
outer loop
vertex -122.934143 -107.989716 -56.792774
vertex -25.321884 -125.260712 116.912613
vertex -49.890182 70.417770 150.174255
endloop
endfacet
facet normal -0.864122 -0.187860 0.466907
outer loop
vertex -122.934143 -107.989716 -56.792774
vertex -49.890182 70.417770 150.174255
vertex -147.502441 87.688766 -23.531124
endloop
endfacet
facet normal -0.488061 0.086355 -0.868527
outer loop
vertex -147.502441 87.688766 -23.531124
vertex 25.321884 125.260712 -116.912613
vertex 49.890182 -70.417770 -150.174255
endloop
endfacet
facet normal -0.488061 0.086355 -0.868527
outer loop
vertex -147.502441 87.688766 -23.531124
vertex 49.890182 -70.417770 -150.174255
vertex -122.934143 -107.989716 -56.792774
endloop
endfacet
facet normal 0.864122 0.187860 -0.466907
outer loop
vertex 25.321884 125.260712 -116.912613
vertex 122.934143 107.989716 56.792774
vertex 147.502441 -87.688766 23.531124
endloop
endfacet
facet normal 0.864122 0.187860 -0.466907
outer loop
vertex 25.321884 125.260712 -116.912613
vertex 147.502441 -87.688766 23.531124
vertex 49.890182 -70.417770 -150.174255
endloop
endfacet
facet normal -0.122841 0.978392 0.166308
outer loop
vertex -147.502441 87.688766 -23.531124
vertex -49.890182 70.417770 150.174255
vertex 122.934143 107.989716 56.792774
endloop
endfacet
facet normal -0.122841 0.978392 0.166308
outer loop
vertex -147.502441 87.688766 -23.531124
vertex 122.934143 107.989716 56.792774
vertex 25.321884 125.260712 -116.912613
endloop
endfacet
endsolid Exported from Blender-3.4.1
